<svg width="20" height="24" viewBox="0 0 20 24" fill="none" xmlns="http://www.w3.org/2000/svg">
<path fill-rule="evenodd" clip-rule="evenodd" d="M13.9473 14.5745C15.3516 13.9633 17.6582 15.1628 18.3008 15.5247C19.0957 15.1235 19.6016 14.5249 19.8418 13.6943C20.627 10.9693 18.2656 6.76611 17.8281 6.02594C15.3398 5.21082 14.8711 4.73572 14.9258 4.23608C14.9766 3.78723 15.4961 3.60181 16.0156 3.52991C16.0879 2.46143 15.8809 1.62872 15.3926 1.05219C14.6582 0.182373 13.375 0 12.4277 0C12.0547 0 11.7012 0.0274048 11.3906 0.0646362C11.1074 0.0986328 10.8633 0.140747 10.6758 0.177673V22.5867C10.6758 22.5867 11.4316 23.9986 12.4473 23.9986C13.6133 23.9977 14.9297 23.1442 15.625 22.6238C14.7266 22.1358 12.9062 21.0061 12.8047 19.8147L13.5195 19.749C13.584 20.5215 15.2012 21.5875 16.2773 22.1232C18.5469 20.726 19.7207 19.3829 19.668 18.2354C19.6133 16.9685 18.1562 16.2986 18.1426 16.2925C18.1426 16.2925 15.2637 14.7466 14.2207 15.2706C13.916 15.4028 13.7168 15.6569 13.6172 16.046L12.9238 15.8491L12.9883 15.6411C13.0234 15.541 13.0645 15.4468 13.1094 15.3584C13.2988 14.9971 13.5781 14.7344 13.9473 14.5745ZM3.98828 3.5304C3.91406 2.46185 4.12305 1.62866 4.61133 1.05261C5.3457 0.182861 6.62891 0.000488281 7.57422 0.000488281C7.87695 0.000488281 8.16797 0.0186157 8.43359 0.0454102C8.79102 0.081604 9.10156 0.133667 9.32812 0.178162V22.5876C9.32812 22.5876 8.57227 24 7.55664 24C6.39062 23.9991 5.07422 23.1455 4.37891 22.6252C5.27734 22.1373 7.09766 21.0071 7.19727 19.816L6.48438 19.7499C6.41797 20.5229 4.80273 21.5894 3.72656 22.1246C1.45508 20.7267 0.28125 19.3843 0.335938 18.2369C0.390625 16.9703 1.8457 16.3 1.86133 16.2935C1.86133 16.2935 4.74023 14.7485 5.7832 15.2716C6.08789 15.4042 6.28711 15.6578 6.38672 16.0478L7.07812 15.851C6.91992 15.2285 6.57422 14.8 6.05664 14.5751C4.65039 13.9633 2.3457 15.1628 1.70312 15.5251C0.908203 15.1244 0.402344 14.5255 0.160156 13.6948C-0.625 10.9698 1.73828 6.7666 2.17383 6.02649C4.66406 5.2113 5.13281 4.73621 5.07617 4.23657C5.02734 3.78772 4.50781 3.60193 3.98828 3.5304ZM4.02148 9.78656L4.42578 10.4086C4.54688 10.3221 7.34766 8.28027 7.08789 6.1593L6.37891 6.25531C6.54688 7.63623 4.73438 9.2724 4.02148 9.78656ZM13.627 6.25525L12.916 6.15924C12.6562 8.28033 15.459 10.3221 15.5781 10.4086L15.9824 9.7865C15.2715 9.27277 13.459 7.63617 13.627 6.25525Z" fill="#0070BA"/>
</svg>
