<svg width="24" height="20" viewBox="0 0 24 20" fill="none" xmlns="http://www.w3.org/2000/svg">
<path fill-rule="evenodd" clip-rule="evenodd" d="M23.5996 4.68634L12.5645 0.0443726C12.4238 -0.0147705 12.2695 -0.0147705 12.1289 0.0443726L1.06445 4.69849C0.824219 4.79993 0.664062 5.0575 0.664062 5.34521V13.7484H2.05078V6.3833L12.1289 10.6221C12.2695 10.6812 12.4238 10.6812 12.5645 10.6221L23.5996 5.9798C23.8398 5.87836 24 5.62079 24 5.33307C24 5.15967 23.9414 4.99719 23.8438 4.87323C23.7793 4.79156 23.6953 4.72662 23.5996 4.68634ZM21.2715 8.60394L12.3457 12.4077L3.42188 8.65894L2.91211 13.8636C2.88867 14.0776 2.95703 14.2917 3.09375 14.4426C3.23242 14.5933 3.42383 14.6635 3.61523 14.6328C4.10352 14.5532 4.60352 14.5128 5.09961 14.5128C8.06641 14.5128 10.7207 15.9171 11.7031 18.007C11.8105 18.2343 12.0215 18.3763 12.25 18.3763H12.4395C12.6699 18.3763 12.8809 18.2342 12.9883 18.0073C13.9707 15.9174 16.625 14.5131 19.5898 14.5131C19.7891 14.5131 19.9883 14.5195 20.1855 14.5323C20.4844 14.5516 20.7832 14.5853 21.0762 14.6331L21.1699 14.6403C21.3809 14.6403 21.5781 14.53 21.6914 14.35C21.7617 14.2396 21.7988 14.1028 21.7891 13.9493L21.2715 8.60394ZM0.158203 19.7717C0.0410156 19.6261 -0.015625 19.4318 0.00390625 19.2369L0.40625 14.952H2.30859L2.71289 19.2367C2.73047 19.4318 2.67383 19.6261 2.55664 19.7714C2.43945 19.9168 2.27148 20 2.09766 20H0.617188C0.443359 20 0.275391 19.9171 0.158203 19.7717Z" fill="#0070BA"/>
</svg>
