<svg width="40" height="22" viewBox="0 0 40 22" fill="none" xmlns="http://www.w3.org/2000/svg">
<path fill-rule="evenodd" clip-rule="evenodd" d="M30.9423 2.49181C34.1986 4.06937 37.1064 6.37962 39.3513 9.17261C40.2162 10.2486 40.2162 11.7513 39.3513 12.8274C37.1063 15.6205 34.1986 17.9306 30.9423 19.5082C27.6182 21.1186 24.0421 21.9541 20.3092 21.998C20.2064 22.0007 19.7936 22.0007 19.6908 21.998C15.9578 21.9541 12.3817 21.1186 9.05762 19.5082C5.80139 17.9306 2.89355 15.6204 0.648682 12.8274C-0.216187 11.7514 -0.216187 10.2486 0.648682 9.17261C2.89368 6.37955 5.80139 4.06937 9.05762 2.49181C12.3817 0.881424 15.9578 0.0459442 19.6908 0.00204468C19.7936 -0.000686646 20.2064 -0.000686646 20.3092 0.00204468C24.0422 0.0458679 27.6182 0.881424 30.9423 2.49181ZM1.93176 11.8563C4.02856 14.4649 6.74402 16.6224 9.78455 18.0955C10.6483 18.5139 11.5304 18.8758 12.4286 19.1821C10.1176 17.1666 8.66162 14.2453 8.66162 11C8.66162 7.75478 10.1174 4.83374 12.4282 2.81816C11.53 3.12442 10.6482 3.48618 9.78455 3.9045C6.7439 5.37759 4.02844 7.53508 1.93176 10.1437C1.52649 10.6479 1.52649 11.3521 1.93176 11.8563ZM20 20.4231C14.6453 20.4231 10.2888 16.1959 10.2888 10.9999C10.2888 5.80386 14.6453 1.57674 20 1.57674C25.3549 1.57674 29.7112 5.80394 29.7112 11C29.7112 16.196 25.3549 20.4231 20 20.4231ZM30.2155 18.0954C33.2562 16.6223 35.9717 14.4648 38.0684 11.8562C38.4736 11.352 38.4736 10.6478 38.0685 10.1436C35.9717 7.53493 33.2562 5.37743 30.2156 3.90433C29.3517 3.48579 28.4695 3.12358 27.571 2.81725C29.8822 4.83282 31.3385 7.75424 31.3385 10.9999C31.3385 14.2438 29.8837 17.1639 27.5745 19.1794C28.4716 18.8734 29.3529 18.5133 30.2155 18.0954ZM20.0001 6.96729C17.7085 6.96729 15.8442 8.77629 15.8442 10.9999C15.8442 13.2235 17.7085 15.0325 20.0001 15.0325C22.2916 15.0325 24.1559 13.2235 24.1559 10.9999C24.156 8.77629 22.2917 6.96729 20.0001 6.96729ZM17.4713 10.9999C17.4713 12.353 18.6057 13.4536 20 13.4536C21.3943 13.4536 22.5288 12.353 22.5287 10.9999C22.5287 9.64687 21.3943 8.5462 20 8.5462C18.6056 8.5462 17.4713 9.64687 17.4713 10.9999Z" fill="black"/>
</svg>
