<svg width="20" height="21" viewBox="0 0 20 21" fill="none" xmlns="http://www.w3.org/2000/svg">
<path fill-rule="evenodd" clip-rule="evenodd" d="M14.9658 14.1229L19.8271 18.9843C20.0576 19.2149 20.0576 19.5964 19.8271 19.827C19.7119 19.9468 19.5566 20.0044 19.4058 20.0044C19.2549 20.0044 19.0996 19.9423 18.9844 19.827L14.123 14.9656C12.6235 16.2697 10.6675 17.0592 8.52979 17.0592C3.82812 17.0592 0 13.2313 0 8.52961C0 3.8279 3.82324 0 8.52979 0C13.2314 0 17.0591 3.82346 17.0591 8.52961C17.0591 10.6676 16.2695 12.6236 14.9658 14.1229ZM8.52539 1.1976C4.48438 1.1976 1.19336 4.48436 1.19336 8.5296C1.19336 12.5748 4.48438 15.866 8.52539 15.866C12.5708 15.866 15.8574 12.5704 15.8574 8.5296C15.8574 4.4888 12.5708 1.1976 8.52539 1.1976Z" fill="black"/>
</svg>
