<svg width="20" height="26" viewBox="0 0 20 26" fill="none" xmlns="http://www.w3.org/2000/svg">
<path fill-rule="evenodd" clip-rule="evenodd" d="M0 0H13.7932L20 6.32056V26H0V0ZM18.5472 6.06665L14.0426 1.47937V6.06665H18.5472ZM0.851074 25.1334V0.866699H13.1915V6.93335H19.1489V25.1334H0.851074ZM4.68091 9.53333H15.3192C15.5541 9.53333 15.7448 9.72705 15.7448 9.96667C15.7448 10.2063 15.5541 10.4 15.3192 10.4H4.68091C4.44604 10.4 4.25537 10.2063 4.25537 9.96667C4.25537 9.72705 4.44604 9.53333 4.68091 9.53333ZM4.68091 6.93335H8.93628C9.17114 6.93335 9.36169 6.73962 9.36169 6.5C9.36169 6.26038 9.17114 6.06665 8.93628 6.06665H4.68091C4.44604 6.06665 4.25537 6.26038 4.25537 6.5C4.25537 6.73962 4.44604 6.93335 4.68091 6.93335ZM4.68091 13H15.3192C15.5541 13 15.7448 13.1937 15.7448 13.4333C15.7448 13.673 15.5541 13.8667 15.3192 13.8667H4.68091C4.44604 13.8667 4.25537 13.673 4.25537 13.4333C4.25537 13.1937 4.44604 13 4.68091 13ZM15.3192 16.4667H4.68091C4.44604 16.4667 4.25537 16.6604 4.25537 16.9C4.25537 17.1396 4.44604 17.3334 4.68091 17.3334H15.3192C15.5541 17.3334 15.7448 17.1396 15.7448 16.9C15.7448 16.6604 15.5541 16.4667 15.3192 16.4667ZM4.68091 19.9333H15.3192C15.5541 19.9333 15.7448 20.1271 15.7448 20.3667C15.7448 20.6063 15.5541 20.8 15.3192 20.8H4.68091C4.44604 20.8 4.25537 20.6063 4.25537 20.3667C4.25537 20.1271 4.44604 19.9333 4.68091 19.9333Z" fill="#0070BA"/>
</svg>
