<svg width="520" height="596" viewBox="0 0 520 596" fill="none" xmlns="http://www.w3.org/2000/svg">
<path fill-rule="evenodd" clip-rule="evenodd" d="M519.78 7.70743C520.288 12.1109 520.035 13.4872 517.749 16.5144C516.479 18.441 514.957 20.3687 514.702 20.3687C514.449 20.3687 512.926 19.267 511.402 17.8907C509.625 16.2398 508.609 14.3132 508.102 11.0103C507.849 7.43175 508.102 6.60577 509.879 4.95485C511.148 4.12886 511.91 3.30289 511.402 3.30289C509.625 3.30289 514.195 0.275681 515.972 0C518.257 0 519.272 2.20227 519.78 7.70743ZM480.985 13.2508C484.584 12.741 488.184 15.0357 487.584 18.0956C486.984 20.9 477.686 21.1554 476.187 18.6054C474.687 16.3107 476.486 14.2705 480.985 13.2508ZM479.263 62.1498C479.263 59.34 479.029 59.34 476.004 61.214C474.375 62.4626 474.143 63.0868 474.841 63.7111C477.168 65.5851 479.263 64.6481 479.263 62.1498ZM505.274 65.6121C505.536 67.5033 503.437 68.3141 499.498 68.0435C497.66 67.7739 495.822 68.3141 495.298 69.1249C494.247 70.4759 492.934 68.0435 491.884 62.9102C491.359 60.7494 490.31 59.1279 489.259 58.8583C487.421 58.3171 485.583 55.3455 486.896 55.3455C487.421 55.3455 490.046 52.6436 492.672 49.1319C495.298 45.6191 497.923 43.1878 498.448 43.4574C498.973 43.728 500.286 43.1878 501.336 42.1064C503.173 39.9456 503.437 30.7594 501.599 25.8957C500.811 24.0045 500.811 22.1134 501.86 19.1418C502.005 18.7465 502.149 18.3331 502.292 17.9148C502.457 17.4294 502.62 16.9374 502.778 16.4596L502.79 16.4231L502.805 16.3788L502.819 16.3311C503.258 15.0199 503.654 13.8306 503.961 13.1978C504.176 12.5339 504.303 12.1418 504.558 12.0215C504.926 11.848 505.561 12.2401 507.111 13.1978C508.425 14.2781 511.05 17.7909 512.888 21.3026C515.775 27.2467 515.775 27.7868 513.938 28.8683C512.363 30.2192 512.363 30.7594 513.676 36.4329C515.514 44.8083 515.251 47.5103 511.575 52.9142C507.375 59.3985 505.011 63.9916 505.274 65.6121ZM467.281 97.0544C467.281 96.3392 466.581 94.9097 465.882 93.718C464.481 92.0497 464.016 91.811 463.083 93.0027C462.149 93.9558 462.383 94.671 463.315 96.3392C464.948 98.484 467.281 98.9614 467.281 97.0544ZM490.242 107.601C491.579 112.316 491.579 112.84 490.242 115.459C488.46 119.126 484.896 119.65 483.56 116.769C482.668 114.673 482.892 101.839 484.005 99.7428C484.228 98.9567 484.228 97.6469 483.56 96.5995C482.446 93.7186 482.446 93.4562 485.119 93.4562C488.906 93.4562 489.797 94.766 489.128 98.9567C488.683 101.315 489.128 104.196 490.242 107.601ZM472.073 126.494C472.073 124.216 468.157 122.507 466.199 123.931C463.507 125.355 465.221 128.203 468.893 128.203C471.095 128.203 472.073 127.633 472.073 126.494ZM486.435 128.455C489.854 129.284 490.907 130.945 489.328 132.882C486.435 135.649 481.963 133.712 483.015 130.115C483.804 128.178 484.33 127.901 486.435 128.455ZM507.747 144.993C508.984 142.876 505.767 140.759 502.549 141.553C499.826 142.082 498.835 143.934 500.321 145.522C501.311 146.581 507.252 146.316 507.747 144.993ZM471.583 146.175C473.084 146.175 473.585 147.948 473.084 150.226C472.334 151.999 468.331 153.012 467.33 151.24C466.829 150.226 470.332 146.175 471.583 146.175ZM479.312 157.816C479.834 156.022 480.875 153.459 481.656 152.434C484.52 147.308 481.916 144.232 477.49 147.563C476.188 148.589 475.668 150.127 475.668 155.509C475.668 162.686 477.49 163.968 479.312 157.816ZM477.306 173.733C479.387 173.733 480.688 174.317 480.428 174.61C479.387 176.362 476.005 176.655 474.964 175.194C473.924 174.317 474.444 173.733 477.306 173.733ZM500.83 193.36C500.83 192.064 497.965 190.507 496.142 190.507C495.359 190.767 494.839 191.025 494.839 191.545V194.138C494.839 195.176 495.62 196.213 496.662 196.473C498.485 196.732 500.83 194.916 500.83 193.36ZM456.306 196.729C457.53 196.304 458.753 196.517 459.487 196.941C461.201 198.639 458.998 199.487 456.306 198.426L454.102 197.365L456.306 196.729ZM466.014 211.896C466.284 211.123 465.742 209.833 464.657 208.801C461.13 205.706 458.146 207.77 461.673 211.123C464.115 213.702 465.199 213.959 466.014 211.896ZM461.476 227.915C463.335 226.721 464.885 229.707 464.885 233.888C464.885 237.471 462.405 240.755 460.856 239.262C459.617 238.068 459.927 228.811 461.476 227.915ZM459.543 248.816C459.219 248.574 458.894 247.849 458.894 247.364C458.894 247.203 458.91 247.078 458.945 246.989C458.972 246.922 459.009 246.875 459.059 246.848C458.864 245.886 458.819 244.924 459.047 244.597C459.725 243.624 461.588 247.028 461.249 248.001C461.203 248.099 461.154 248.193 461.104 248.283C461.213 248.455 461.274 248.612 461.287 248.743C461.301 248.88 461.261 248.989 461.168 249.058C460.979 249.199 460.677 249.258 460.329 249.185C460.291 249.206 460.259 249.217 460.233 249.217C460.18 249.217 460.126 249.201 460.073 249.172C460.019 249.142 459.965 249.097 459.911 249.04C459.827 249 459.741 248.951 459.655 248.895L459.543 248.816ZM454.782 265.134C455.569 264.599 455.569 263.796 453.997 261.922C453.015 260.633 452.559 260.034 452.065 260.001C451.637 259.973 451.18 260.373 450.326 261.119C449.017 262.457 449.017 263.26 450.064 264.599C451.376 266.204 452.948 266.472 454.782 265.134ZM441.555 300.705C440.503 303.25 439.188 305.794 438.398 306.557C436.031 308.338 432.085 308.338 430.77 306.812C429.718 305.794 429.98 305.285 431.56 304.776C434.716 303.758 436.819 301.214 436.819 298.924C436.819 297.906 437.346 296.633 437.608 296.125C438.661 295.107 441.028 288.746 441.817 284.675C442.344 282.386 443.396 280.858 445.236 280.096C449.708 278.06 450.498 279.332 447.604 284.42C446.288 286.965 444.975 290.273 444.975 291.545C444.975 293.072 444.711 294.599 444.185 295.107C443.659 295.616 442.606 298.161 441.555 300.705ZM395.31 326.799C394.803 324.493 390.751 323.916 389.738 325.934C388.472 327.952 391.004 329.969 393.537 329.393C395.31 329.104 395.562 328.528 395.31 326.799ZM403.143 333.177C405.229 332.607 407.084 334.887 405.693 336.597C404.302 338.308 403.839 338.308 402.448 336.597C400.825 334.887 401.057 334.032 403.143 333.177ZM403.779 343.984C403.779 341.475 402.98 340.847 401.862 342.102C401.223 342.729 401.223 343.357 401.862 344.925C402.661 347.12 403.779 346.493 403.779 343.984ZM373.278 403.374C373.278 405.72 369.683 410.413 366.089 412.759C361.94 415.367 360.005 415.106 360.834 412.238C361.388 411.195 361.94 407.545 362.217 404.677C362.759 399.319 363.034 399.204 367.71 397.248L368.024 397.117L373.001 395.031L372.448 390.338C372.171 386.688 372.448 385.124 374.66 381.995C376.872 378.867 379.638 376.521 383.785 373.652C384.062 373.652 384.339 371.827 384.615 369.742C384.892 365.31 385.721 364.267 388.763 363.224C395.398 360.878 399.547 361.659 397.059 364.528C396.506 365.31 395.676 367.135 395.123 368.699C394.846 370.524 393.188 373.131 391.527 374.696C388.486 378.084 385.998 383.038 385.998 386.949C385.998 388.513 383.785 391.642 379.638 395.552C376.043 398.942 373.278 402.33 373.278 403.374ZM278.061 512.484C283.703 507.482 285.046 505.112 286.39 500.636C287.465 497.477 290.151 491.949 292.302 488.264C294.72 484.841 296.601 480.893 296.601 480.103C296.601 477.47 299.556 475.101 303.05 475.101C307.08 475.101 311.648 470.362 317.022 461.148C322.934 450.355 324.547 448.512 330.189 446.143C335.832 443.773 341.206 438.771 341.475 435.612C341.475 434.033 341.475 427.451 341.206 426.135C341.206 425.608 339.862 425.346 338.25 425.346C333.951 425.346 325.889 430.874 324.008 434.823C323.203 436.928 322.127 438.771 321.59 439.035C320.784 439.298 320.784 440.087 321.053 440.614C322.396 442.72 316.216 449.565 310.842 451.934C308.155 452.987 307.349 452.724 304.661 450.618C300.094 447.459 298.213 448.775 298.213 455.62C298.213 459.568 297.675 461.412 295.794 463.255C294.45 464.57 293.376 466.414 293.376 467.466C293.376 469.045 292.839 469.573 288.002 470.625C286.121 470.889 285.314 471.678 285.853 472.732C286.658 474.837 285.314 478.786 282.628 481.945C281.284 483.525 279.672 486.421 279.403 488C278.865 489.58 277.521 491.686 276.447 492.739C274.566 494.055 274.566 494.582 275.641 496.951C277.254 500.636 277.254 501.164 274.298 502.48C272.417 503.269 271.879 504.059 272.417 505.375C272.686 506.954 272.148 507.745 270.536 508.008C269.192 508.271 268.387 509.325 268.387 511.167C268.387 513.8 270.268 518.802 271.073 518.802C271.342 518.802 274.566 516.169 278.061 512.484ZM147.761 555.686C146.961 556.482 146.16 557.809 146.16 558.87C146.16 562.053 144.293 560.992 142.693 557.013C141.893 555.156 140.826 553.563 140.292 553.829C138.425 555.156 136.825 552.503 134.959 544.809C132.559 536.055 130.157 529.422 127.757 526.504C125.356 523.851 123.756 518.545 124.557 516.688C125.044 515.959 125.531 512.79 126.02 509.615L126.157 508.729C126.423 505.016 127.49 501.566 128.558 500.77C129.357 499.709 129.624 498.913 129.357 498.648C129.091 498.383 129.624 496.526 130.424 494.669C132.291 489.628 132.291 488.832 128.024 484.322C116.556 471.854 113.888 464.425 113.888 442.936C113.888 432.59 113.354 425.692 112.555 423.835C108.021 413.224 106.153 410.04 102.419 406.327C100.818 404.734 97.6182 400.224 95.751 396.776C93.6172 392.796 90.9502 389.878 89.6172 389.082C88.0156 388.552 85.6162 386.96 84.0146 385.633L81.3486 383.51L84.5488 380.062C89.083 375.286 89.6172 373.165 88.2832 365.736C86.6826 355.39 86.416 351.675 85.8818 340.799C85.6162 330.453 83.4814 320.372 78.6816 307.902C77.3477 304.454 76.0137 299.148 75.7471 295.699C75.2139 292.25 73.6143 287.475 72.0127 284.291C70.1465 281.373 68.8125 278.19 68.8125 277.394C68.8125 276.597 67.2129 272.619 65.0781 268.373C58.9443 255.375 58.4102 253.782 59.7441 245.558C61.3447 232.56 61.6104 232.294 64.2783 233.09C67.4785 233.621 67.7461 231.233 65.0781 229.375C61.6104 226.988 55.4766 216.907 55.7441 214.784C56.2773 213.723 55.4766 212.662 54.4102 211.866C53.3428 211.336 52.543 211.07 52.543 211.601C52.543 211.866 51.4756 211.336 50.4092 210.274C49.3428 209.213 48.2754 207.887 48.2754 207.356C48.2754 205.765 44.541 204.438 43.208 205.234C42.9414 205.499 40.0068 203.377 37.0732 200.459C32.8057 196.214 31.7393 194.092 31.4717 191.173C30.9385 187.194 26.9385 182.154 24.0039 182.154C22.4043 182.154 22.1367 180.562 20.2705 167.828C19.2031 158.543 18.1357 156.154 15.7363 157.216C14.1357 157.747 10.9355 150.319 12.2686 148.992C12.8027 148.462 13.3359 146.869 13.3359 145.543C13.3359 144.216 13.6016 143.421 14.1357 143.686C15.7363 144.747 17.6025 141.299 16.8027 138.911C13.8691 128.565 12.2686 120.605 12.2686 116.361C12.2686 111.055 9.06738 101.77 4 92.485C-0.800781 83.9953 -0.800781 81.3422 3.4668 76.3017C5.33398 74.179 6.93457 71.7916 6.93457 71.5259C6.93457 70.7308 12.8027 67.2816 14.4023 67.2816C14.6689 67.2816 15.4688 69.669 16.0029 72.3221C16.2695 74.9752 16.8027 77.3625 17.0693 77.8929C17.3369 78.4244 19.7373 77.0978 22.4043 75.2408C27.2051 72.3221 27.4717 71.7916 27.2051 68.0777C26.9385 65.955 27.2051 64.3638 27.4717 64.3638C28.0049 64.3638 28.0049 63.3019 27.2051 61.9754C26.6709 60.3841 25.8711 59.3233 25.6045 59.588C25.0703 59.8537 24.5371 58.7919 24.5371 56.6702C24.5371 55.3436 25.0703 55.3436 26.6709 56.1398C29.6045 57.731 31.4717 56.4045 32.2725 51.8944C33.6055 44.997 30.6719 44.2008 28.0049 50.8336C25.8711 55.8741 24.0039 53.4867 24.2715 45.7931C24.5371 39.6908 23.2031 34.1199 21.6035 34.916C20.2705 35.7121 12.5352 30.4059 5.86719 24.0389L0 18.468L6.93457 18.7327C10.668 18.7327 14.4023 18.9984 14.9355 19.5288C15.4688 19.7945 16.5361 19.5288 17.3369 18.7327C18.1357 17.9376 19.2031 17.1414 20.0029 17.1414C20.8037 17.1414 20.2705 16.0806 18.6689 14.4884C17.0693 12.8971 16.2695 11.0391 16.5361 9.71358C17.0693 6.53006 19.7373 6.26436 21.3369 9.44788C21.8701 10.7744 23.2031 12.101 24.0039 12.101C28.2715 12.101 37.3398 26.9567 34.9395 29.8755C33.6055 31.7325 34.4062 42.8743 36.0059 44.2008C38.6729 46.3235 44.2744 54.5475 44.2744 56.4045C44.2744 57.4663 45.3418 58.7919 46.6758 59.3233C47.7422 59.8537 49.3428 61.7107 50.1416 63.3019C50.6758 65.1589 52.0088 66.4854 53.0762 66.4854C55.4766 66.4854 60.5439 71.2612 60.5439 73.6486C60.5439 74.7094 62.1455 77.893 63.7451 80.5461C65.6113 83.4649 66.9453 86.118 66.6787 86.9131C66.1455 88.7701 58.6777 82.6687 57.877 79.7509C56.8105 74.9752 55.7441 73.6486 53.3428 74.179C50.1416 75.2409 51.4756 78.1587 58.1445 87.7092C64.2783 96.1989 65.8789 97.5255 65.8789 94.3419C65.8789 90.8927 67.7461 90.627 68.5459 93.8105C68.8125 95.4028 70.6797 98.852 72.5459 101.77C75.4805 106.545 77.8809 112.647 78.9473 118.484C79.4805 121.137 76.2803 132.013 74.9473 132.013C73.8799 132.013 73.3467 127.238 74.1475 125.646C74.6807 124.585 74.6807 123.258 74.4131 122.197C73.8799 120.871 73.6143 121.137 72.2803 123.524C70.9463 126.442 71.2129 127.238 74.4131 136.789C76.5469 142.359 77.8809 147.135 77.3477 147.135C76.2803 147.4 77.0801 152.972 79.2148 159.339C80.2812 161.991 81.8818 164.379 84.5488 166.236C89.3496 169.42 92.0166 174.991 91.75 181.092C91.4834 186.133 93.8838 186.929 94.417 181.888C94.6846 180.562 95.4834 179.235 96.0176 179.235C97.6182 179.235 100.553 182.154 102.419 185.337L103.413 187.049C106.015 191.524 106.886 193.022 106.589 194.234C106.439 194.844 105.995 195.381 105.326 196.188L105.086 196.479L103.219 199.398L105.886 201.255C107.22 202.316 109.087 203.112 110.154 203.112C112.555 202.581 116.288 207.622 116.288 211.07C116.288 214.784 118.422 219.825 122.422 225.661C124.023 228.05 126.423 232.824 127.757 236.008C129.091 239.457 130.69 242.905 131.491 243.701C132.024 244.762 132.824 246.619 133.357 248.477C133.891 251.395 135.492 253.518 143.227 262.537C145.627 265.19 148.562 269.435 149.894 271.557C151.495 275.006 160.296 286.679 162.696 289.067C162.964 289.332 164.03 290.924 164.83 292.515C165.631 294.107 167.498 297.025 169.098 298.617C172.032 302.066 177.633 311.086 182.167 320.372C185.635 327.269 191.235 331.779 199.504 334.167C203.505 335.227 206.972 339.207 206.972 342.125C206.972 342.921 208.039 345.308 209.372 347.961C210.439 350.615 211.239 353.002 210.705 353.268C210.439 353.533 207.238 351.145 203.771 347.431C200.037 343.717 193.903 339.207 188.836 336.289C184.301 333.901 179.5 330.717 178.166 329.656C170.966 323.024 163.23 321.963 152.028 325.146C148.027 326.473 144.561 327.799 144.293 328.065C144.293 328.596 143.493 328.86 142.96 328.86C142.426 328.86 140.292 330.187 138.425 331.513C136.559 332.84 134.425 334.167 133.891 334.167C133.357 334.167 131.758 334.963 130.69 336.289C128.558 338.411 128.558 338.677 129.624 347.166C131.225 357.778 131.225 362.022 129.357 366.267C128.558 368.124 127.49 372.103 127.224 375.286L127.065 376.164C126.585 378.816 126.104 381.468 125.623 382.185C125.09 382.98 125.356 384.837 125.89 386.429C126.423 387.756 126.956 391.735 127.224 395.449C127.49 398.898 128.024 404.204 128.558 407.122C129.2 409.468 129.672 412.5 129.97 414.426L129.973 414.443C130.044 414.906 130.105 415.303 130.157 415.611C131.491 425.958 138.425 441.876 142.96 444.529C153.095 450.896 165.631 462.038 165.896 464.691C165.896 467.344 172.298 479.016 175.232 481.669C179.233 485.649 186.701 488.036 190.969 486.71C195.236 485.649 200.037 489.363 202.438 495.995C202.933 497.227 203.601 498.915 204.307 500.716C205.122 502.795 205.99 505.024 206.705 506.872C208.306 511.117 208.839 513.504 208.039 514.831C207.505 515.627 207.238 519.871 207.505 523.851C207.771 528.361 207.238 531.809 206.705 532.605C205.638 534.198 205.104 533.932 203.237 531.014C202.171 528.891 200.838 525.974 200.037 524.117C199.236 522.259 198.17 520.667 197.903 520.667C196.57 520.667 193.636 512.974 193.636 509.79C193.636 504.484 192.569 503.954 186.701 505.811C178.166 508.729 176.033 508.464 168.831 505.016L162.431 501.566L158.163 503.689C154.162 505.546 153.629 506.341 152.562 511.117C151.762 514.035 151.495 520.402 151.495 525.443C151.762 541.891 151.495 544.809 150.429 549.585C149.628 552.237 148.562 555.156 147.761 555.686ZM280.529 561.716C281.861 560.427 282.927 559.138 282.927 558.364C282.927 557.592 283.193 557.076 283.726 557.076C284.258 557.076 285.058 555.787 285.59 554.498C286.656 552.693 286.656 552.178 285.324 551.663C282.661 550.632 282.128 550.889 277.333 555.014C274.67 557.076 272.272 558.88 271.474 559.138C269.876 559.653 271.208 562.489 273.871 563.777C276.269 564.809 277.067 564.551 280.529 561.716ZM225.262 567.28C220.515 572.676 220.515 572.946 220.515 579.961C220.778 587.246 220.251 588.595 217.877 585.626C217.086 584.818 215.768 584.008 214.713 584.008C212.603 584.008 211.283 581.31 212.603 579.691C213.13 578.882 213.921 577.262 214.185 575.914C214.713 574.295 216.822 571.328 218.932 569.169C221.306 566.741 223.151 563.503 223.943 560.266C225.21 555.082 225.504 554.38 229.031 545.961L229.481 544.886C229.836 543.942 230.191 543.018 230.521 542.161C231.415 539.832 232.119 537.996 232.119 537.602C232.119 535.983 235.284 529.507 236.603 528.698C237.13 528.158 238.449 528.429 239.504 528.968C241.878 530.317 245.306 530.047 250.317 528.158C255.328 526.27 257.175 527.079 256.12 531.127C255.593 533.285 254.538 534.094 251.9 534.634C250.054 534.904 248.471 535.714 248.471 536.253C248.471 536.792 247.943 537.063 247.152 537.063C246.361 537.063 244.251 538.681 242.142 540.299C240.295 541.919 238.186 543.268 237.395 543.538C236.603 543.538 235.548 544.886 234.757 547.045C233.965 548.933 232.646 551.092 231.592 551.632C230.8 552.441 230.009 554.869 230.009 557.567C230.009 561.344 229.481 562.694 225.262 567.28ZM257.604 584.524C257.604 582.05 256.042 580.677 253.697 581.226C252.395 581.501 251.613 582.601 251.613 583.7C251.613 585.349 252.134 585.899 254.479 585.899C256.302 585.899 257.604 585.349 257.604 584.524ZM254.391 589.285C255.48 590.675 255.48 591.23 254.391 592.619C253.846 593.453 252.757 594.286 252.484 594.286C250.307 594.008 249.217 592.619 249.217 590.952C249.217 588.452 252.213 587.341 254.391 589.285ZM247.766 592.155C248.609 590.868 247.204 588.295 245.519 588.295C243.551 588.295 242.708 589.582 243.551 591.641C244.395 593.184 246.643 593.7 247.766 592.155ZM248.019 593.951C248.019 592.636 249.722 592.855 250.36 594.389C250.574 595.046 250.147 595.484 249.296 595.484C248.657 595.484 248.019 594.827 248.019 593.951Z" fill="#0070BA"/>
</svg>
