<svg width="24" height="20" viewBox="0 0 24 20" fill="none" xmlns="http://www.w3.org/2000/svg">
<path fill-rule="evenodd" clip-rule="evenodd" d="M10.0547 2.96606C10.0547 1.32794 13.1758 0 17.0273 0C20.8789 0 24 1.32794 24 2.96606V3.60931C24 5.24747 20.8789 6.57541 17.0273 6.57541C13.1758 6.57541 10.0547 5.24747 10.0547 3.60931V2.96606ZM8.91602 11.4821C8.29883 11.5581 7.64648 11.599 6.97266 11.599C3.12109 11.599 0 10.2709 0 8.63281V7.98956C0 6.35144 3.12109 5.0235 6.97266 5.0235C7.64648 5.0235 8.29883 5.06436 8.91602 5.14035V11.4821ZM8.91602 14.7936C8.29883 14.8695 7.64648 14.9104 6.97266 14.9104C3.12109 14.9104 0 13.5824 0 11.9443V11.301C0 11.0928 0.0507812 10.8897 0.146484 10.6935C0.806641 12.0403 3.61133 13.0521 6.97266 13.0521L7.375 13.0471L7.74023 13.0341C8.14453 13.0151 8.53711 12.9814 8.91602 12.9347V14.7936ZM8.91602 16.3907V16.2462C8.29883 16.3222 7.64844 16.3636 6.97266 16.3636C3.61133 16.3636 0.806641 15.3517 0.146484 14.005C0.0507812 14.2011 0 14.4043 0 14.6125V15.2557C0 16.8939 3.12109 18.2219 6.97266 18.2219C7.19141 18.2219 7.41016 18.2175 7.625 18.209L8.10547 18.183C8.47266 18.1574 8.83008 18.1196 9.17578 18.0705C9.00391 17.7411 8.91602 17.3938 8.91602 17.0339V16.3907ZM17.0273 8.02859C13.666 8.02859 10.8613 7.01678 10.2012 5.67001C10.1562 5.76025 10.123 5.85196 10.0996 5.94498C10.0703 6.05411 10.0547 6.16507 10.0547 6.2775V6.92078C10.0547 8.5589 13.1758 9.88684 17.0273 9.88684C20.8789 9.88684 24 8.5589 24 6.92078V6.2775C24 6.15295 23.9805 6.03024 23.9473 5.90976C23.9238 5.8288 23.8926 5.74884 23.8535 5.67001C23.1953 7.01678 20.3887 8.02859 17.0273 8.02859ZM10.2012 8.98151C10.8613 10.3282 13.666 11.3401 17.0273 11.3401C20.3887 11.3401 23.1953 10.3283 23.8535 8.98151C23.9492 9.17761 24 9.38074 24 9.58899V10.2323C24 11.8705 20.8789 13.1984 17.0273 13.1984C13.1758 13.1984 10.0547 11.8705 10.0547 10.2323V9.58899C10.0547 9.5 10.0645 9.41196 10.082 9.32501C10.1055 9.20844 10.1465 9.09381 10.2012 8.98151ZM17.0273 14.8303C13.666 14.8303 10.8613 13.8185 10.2012 12.4717C10.1055 12.6679 10.0547 12.871 10.0547 13.0792V13.7225C10.0547 15.3606 13.1758 16.6886 17.0273 16.6886C20.8789 16.6886 24 15.3606 24 13.7225V13.0792C24 13.0321 23.998 12.9852 23.9922 12.9387L23.9785 12.8453C23.9551 12.7184 23.9121 12.5937 23.8535 12.4717C23.1953 13.8184 20.3887 14.8303 17.0273 14.8303ZM10.2012 15.7832C10.8613 17.1299 13.666 18.1418 17.0273 18.1418C20.3887 18.1418 23.1953 17.1299 23.8535 15.7832C23.9492 15.9792 24 16.1824 24 16.3906V17.0339C24 18.6721 20.8789 20 17.0273 20C13.1758 20 10.0547 18.6721 10.0547 17.0339V16.3907C10.0547 16.1826 10.1055 15.9794 10.2012 15.7832Z" fill="#0070BA"/>
</svg>
