<svg width="24" height="24" viewBox="0 0 24 24" fill="none" xmlns="http://www.w3.org/2000/svg">
<path fill-rule="evenodd" clip-rule="evenodd" d="M2.23047 12.7014C3.08984 13.3074 4.14648 13.6411 5.20703 13.6411C5.57031 13.6411 5.93555 13.6027 6.29102 13.5268L6.32227 13.52L19.9863 9.53381C22.6484 8.75458 24.1562 6.02942 23.3496 3.45892C23.0293 2.43854 22.3906 1.56763 21.5 0.940125C20.6406 0.333923 19.584 0 18.5234 0C18.0293 0 17.5371 0.0708618 17.0586 0.210815L3.43555 4.21344L3.37305 4.23407C2.19336 4.67847 1.23633 5.53015 0.677734 6.63226C0.115234 7.74066 0.0117188 9.00183 0.382812 10.1833C0.703125 11.2036 1.3418 12.0743 2.23047 12.7014ZM19.3496 14.2736C20.6133 14.3682 21.7852 14.915 22.6504 15.8133C23.5215 16.7168 24 17.8943 24 19.1288C24 20.3635 23.5215 21.541 22.6504 22.4445C21.7852 23.3428 20.6133 23.8895 19.3496 23.984L19.2852 23.9865L5.04492 24C2.26367 24 0 21.8148 0 19.1288C0 16.4429 2.26367 14.2577 5.04492 14.2577L19.3164 14.2712L19.3496 14.2736ZM5.04297 22.3469L12.1445 22.3402V15.9175L5.04297 15.9108C3.20508 15.9108 1.71094 17.3544 1.71094 19.1289C1.71094 20.903 3.20508 22.3466 5.04297 22.3469ZM18.5234 1.65308C18.1973 1.65308 17.8711 1.70001 17.5566 1.79254L10.7617 3.78882L12.6914 9.93518L19.4902 7.95166C21.248 7.43707 22.2441 5.63672 21.7109 3.9386C21.2891 2.5929 19.9785 1.65308 18.5234 1.65308Z" fill="#0070BA"/>
</svg>
