      <svg viewBox="0 0 522 597" fill="none" xmlns="http://www.w3.org/2000/svg">
        <path fill="white" stroke="#0070BA" onclick="test(1)" fill-rule="evenodd" clip-rule="evenodd" d="M519.249 17.5146C521.535 14.4873 521.788 13.1108 521.28 8.70752C520.772 3.20215 519.757 1 517.472 1C515.695 1.27588 511.125 4.30273 512.902 4.30273C513.162 4.30273 513.09 4.51855 512.787 4.84033C512.677 4.95801 512.535 5.08936 512.368 5.22949L512.269 5.31201L512.076 5.46338L511.938 5.56836C511.766 5.69531 511.578 5.8252 511.379 5.95508C509.602 7.60596 509.349 8.43164 509.602 12.0103C510.109 15.313 511.125 17.2397 512.902 18.8906C514.426 20.2671 515.949 21.3687 516.202 21.3687C516.457 21.3687 517.979 19.4409 519.249 17.5146ZM489.084 19.0957C489.684 16.0356 486.084 13.7412 482.485 14.251C477.986 15.2705 476.187 17.3105 477.687 19.6055C479.186 22.1553 488.484 21.8999 489.084 19.0957ZM477.504 62.2139C480.529 60.3398 480.763 60.3398 480.763 63.1499C480.763 65.6479 478.668 66.585 476.341 64.7109C475.643 64.0869 475.875 63.4624 477.504 62.2139ZM500.998 69.0435C504.937 69.314 507.036 68.5029 506.774 66.6118C506.511 64.9912 508.875 60.3984 513.075 53.9141C516.751 48.5103 517.014 45.8081 515.176 37.4326C513.863 31.7593 513.863 31.2192 515.438 29.8682C517.275 28.7866 517.275 28.2466 514.388 22.3022C512.55 18.7905 509.925 15.2778 508.611 14.1978C508.105 13.8853 507.697 13.6333 507.363 13.4414C506.675 13.0444 506.306 12.9048 506.058 13.0215C505.803 13.1416 505.676 13.5337 505.461 14.1978C505.144 14.8511 504.73 16.0977 504.278 17.4595C503.983 18.3491 503.672 19.2876 503.36 20.1416C502.311 23.1133 502.311 25.0044 503.099 26.8955C504.937 31.7593 504.673 40.9453 502.836 43.1064C501.786 44.1875 500.473 44.728 499.948 44.457C499.423 44.1875 496.798 46.6191 494.172 50.1318C491.546 53.6436 488.921 56.3452 488.396 56.3452C487.083 56.3452 488.921 59.3169 490.759 59.8579L490.838 59.8809C490.877 59.8936 490.916 59.9082 490.955 59.9248C491.048 59.9634 491.141 60.0122 491.232 60.0703C491.319 60.1255 491.405 60.189 491.49 60.2603C492.272 60.918 492.982 62.2559 493.384 63.9102C494.434 69.0435 495.747 71.4756 496.798 70.1245C497.322 69.314 499.16 68.7739 500.998 69.0435ZM468.583 97.1626C468.707 97.5137 468.781 97.8218 468.781 98.0547C468.781 99.9614 466.448 99.4844 464.815 97.3394C463.883 95.6714 463.649 94.9561 464.583 94.0029C465.516 92.8115 465.981 93.0498 467.382 94.7183C467.598 95.0854 467.813 95.4751 468.009 95.8594C468.158 96.1553 468.297 96.4482 468.413 96.7251L468.511 96.9683L468.583 97.1626ZM491.742 116.459C493.079 113.839 493.079 113.316 491.742 108.601C490.628 105.196 490.183 102.315 490.628 99.9565C491.297 95.7656 490.406 94.4561 486.619 94.4561C483.946 94.4561 483.946 94.7183 485.06 97.5991C485.308 97.9883 485.464 98.4141 485.55 98.8354L485.568 98.9312L485.595 99.0933C485.634 99.3647 485.645 99.6309 485.634 99.8809C485.621 100.203 485.574 100.498 485.505 100.743C484.392 102.838 484.168 115.673 485.06 117.769C486.396 120.649 489.96 120.126 491.742 116.459ZM467.699 124.931C469.657 123.507 473.573 125.216 473.573 127.494C473.573 128.633 472.595 129.203 470.393 129.203C466.721 129.203 465.007 126.355 467.699 124.931ZM490.828 133.881C492.407 131.945 491.354 130.284 487.935 129.455C485.83 128.901 485.304 129.178 484.515 131.114C483.463 134.712 487.935 136.648 490.828 133.881ZM504.049 142.553C507.267 141.759 510.484 143.876 509.247 145.992C508.752 147.315 502.811 147.581 501.821 146.521C500.335 144.934 501.326 143.082 504.049 142.553ZM474.584 151.227C475.085 148.948 474.584 147.175 473.083 147.175C471.832 147.175 468.329 151.227 468.83 152.24C469.831 154.013 473.834 152.999 474.584 151.227ZM483.156 153.434C482.375 154.459 481.334 157.022 480.812 158.816C478.99 164.968 477.168 163.687 477.168 156.509C477.168 151.127 477.688 149.589 478.99 148.563C483.416 145.232 486.02 148.308 483.156 153.434ZM481.928 175.61C482.014 175.513 481.93 175.385 481.705 175.257C481.247 174.996 480.202 174.733 478.806 174.733C475.944 174.733 475.424 175.317 476.464 176.194C477.505 177.655 480.887 177.362 481.928 175.61ZM497.642 191.507C499.465 191.507 502.33 193.063 502.33 194.36C502.33 195.916 499.985 197.731 498.162 197.473C497.12 197.213 496.339 196.176 496.339 195.138V192.545C496.339 192.025 496.859 191.767 497.642 191.507ZM460.987 197.941C460.794 197.829 460.567 197.732 460.315 197.658C459.82 197.512 459.229 197.452 458.61 197.537C458.346 197.573 458.076 197.636 457.806 197.729L455.602 198.365L457.806 199.426C460.498 200.487 462.701 199.638 460.987 197.941ZM467.31 211.37C467.574 211.946 467.655 212.492 467.514 212.896C466.699 214.959 465.615 214.702 463.173 212.123C459.646 208.77 462.63 206.707 466.157 209.801C466.363 209.997 466.55 210.202 466.715 210.412C466.877 210.618 467.019 210.828 467.138 211.036C467.201 211.148 467.259 211.259 467.31 211.37ZM466.385 234.888C466.385 230.708 464.835 227.721 462.976 228.915C461.427 229.811 461.117 239.068 462.356 240.262C463.905 241.755 466.385 238.471 466.385 234.888ZM460.394 248.364C460.394 248.849 460.719 249.574 461.043 249.816C461.167 249.908 461.29 249.982 461.411 250.041C461.517 250.153 461.625 250.216 461.733 250.216C461.759 250.216 461.791 250.206 461.829 250.185C462.177 250.258 462.479 250.199 462.668 250.058C462.786 249.97 462.818 249.819 462.766 249.628C462.737 249.523 462.683 249.407 462.604 249.282C462.654 249.193 462.703 249.099 462.749 249C463.088 248.028 461.225 244.625 460.547 245.597C460.319 245.924 460.364 246.886 460.559 247.848C460.442 247.912 460.394 248.083 460.394 248.364ZM455.497 262.922C457.069 264.795 457.069 265.599 456.282 266.134C454.448 267.472 452.876 267.204 451.564 265.599C450.517 264.26 450.517 263.457 451.826 262.119C452.68 261.373 453.137 260.973 453.565 261.001C454.059 261.034 454.515 261.633 455.497 262.922Z" fill="white"/>
        <path fill="white" stroke="#0070BA" onclick="test(3)" fill-rule="evenodd" clip-rule="evenodd" d="M443.054 301.705C442.002 304.25 440.687 306.794 439.897 307.557C437.53 309.338 433.584 309.338 432.269 307.812C431.217 306.794 431.479 306.285 433.059 305.776C436.215 304.758 438.318 302.214 438.318 299.924C438.318 299.38 438.469 298.763 438.648 298.229C438.806 297.764 438.985 297.361 439.107 297.125C440.16 296.107 442.527 289.746 443.316 285.675C443.843 283.385 444.895 281.858 446.735 281.096C451.207 279.06 451.997 280.332 449.103 285.42C447.787 287.965 446.474 291.273 446.474 292.545C446.474 294.071 446.21 295.599 445.684 296.107C445.434 296.35 445.063 297.055 444.631 298.001C444.506 298.275 444.375 298.569 444.24 298.878L443.938 299.581C443.653 300.252 443.356 300.97 443.06 301.688L443.054 301.705ZM287.89 501.636C286.546 506.112 285.203 508.482 279.561 513.484C276.066 517.169 272.842 519.802 272.573 519.802C271.768 519.802 269.887 514.8 269.887 512.167C269.887 510.325 270.692 509.271 272.036 509.008C273.648 508.745 274.186 507.955 273.917 506.375C273.379 505.059 273.917 504.269 275.798 503.48C278.754 502.164 278.754 501.636 277.141 497.951C276.066 495.582 276.066 495.056 277.947 493.739C279.021 492.687 280.365 490.58 280.903 489C281.172 487.421 282.784 484.524 284.128 482.946C286.814 479.787 288.158 475.837 287.353 473.732C286.814 472.678 287.621 471.889 289.502 471.625C294.339 470.573 294.876 470.045 294.876 468.466C294.876 467.414 295.95 465.57 297.294 464.255C299.175 462.412 299.713 460.568 299.713 456.62C299.713 449.775 301.594 448.459 306.161 451.618C308.849 453.724 309.655 453.987 312.342 452.934C317.716 450.565 323.896 443.72 322.553 441.614C322.284 441.087 322.284 440.298 323.09 440.035C323.627 439.771 324.703 437.928 325.508 435.823C327.389 431.874 335.451 426.346 339.75 426.346C341.362 426.346 342.706 426.608 342.706 427.135C342.975 428.451 342.975 435.033 342.975 436.612C342.706 439.771 337.332 444.773 331.689 447.143C326.047 449.512 324.434 451.354 318.522 462.148C313.148 471.362 308.58 476.101 304.55 476.101C301.056 476.101 298.101 478.47 298.101 481.103C298.101 481.893 296.22 485.841 293.802 489.264C291.651 492.949 288.965 498.478 287.89 501.636ZM396.809 327.799C396.302 325.492 392.25 324.916 391.237 326.934C389.971 328.952 392.503 330.969 395.036 330.393C396.809 330.104 397.061 329.528 396.809 327.799ZM404.642 334.177C406.729 333.607 408.583 335.887 407.192 337.597C405.801 339.308 405.338 339.308 403.947 337.597C402.324 335.887 402.556 335.032 404.642 334.177ZM405.278 344.984C405.278 342.475 404.479 341.847 403.361 343.102C402.722 343.729 402.722 344.356 403.361 345.925C404.16 348.121 405.278 347.493 405.278 344.984ZM374.777 404.374C374.777 406.72 371.182 411.413 367.588 413.759C363.439 416.367 361.504 416.105 362.333 413.238C362.887 412.194 363.439 408.545 363.716 405.677C364.258 400.319 364.533 400.204 369.209 398.249L369.523 398.117L374.5 396.031L373.947 391.338C373.67 387.688 373.947 386.124 376.159 382.995C378.371 379.867 381.137 377.521 385.284 374.652C385.561 374.652 385.838 372.827 386.114 370.742C386.391 366.31 387.22 365.267 390.262 364.224C396.897 361.878 401.046 362.659 398.558 365.528C398.005 366.31 397.175 368.135 396.622 369.699C396.345 371.523 394.687 374.131 393.026 375.696C389.985 379.084 387.497 384.038 387.497 387.949C387.497 389.514 385.284 392.642 381.137 396.552C377.542 399.941 374.777 403.33 374.777 404.374Z" fill="white"/>
        <path fill="white" stroke="#0070BA" onclick="test(5)" fill-rule="evenodd" clip-rule="evenodd" d="M226.762 568.28C222.015 573.676 222.015 573.946 222.015 580.96C222.278 588.246 221.751 589.595 219.377 586.626C218.586 585.817 217.268 585.008 216.213 585.008C214.103 585.008 212.783 582.31 214.103 580.691C214.63 579.882 215.421 578.262 215.685 576.915C216.213 575.295 218.322 572.328 220.432 570.169C222.806 567.741 224.651 564.503 225.443 561.266C226.71 556.082 227.004 555.379 230.532 546.959L230.981 545.886C231.328 544.964 231.675 544.061 231.997 543.221L232.003 543.208L232.536 541.814C232.855 540.976 233.128 540.248 233.319 539.691C233.413 539.419 233.487 539.188 233.538 539.006C233.591 538.818 233.619 538.681 233.619 538.602C233.619 536.983 236.784 530.507 238.103 529.698C238.63 529.158 239.949 529.429 241.004 529.968C243.378 531.317 246.806 531.047 251.817 529.158C256.828 527.27 258.675 528.08 257.62 532.127C257.093 534.285 256.038 535.094 253.4 535.634C251.554 535.904 249.971 536.713 249.971 537.253C249.971 537.792 249.443 538.062 248.652 538.062C247.861 538.062 245.751 539.681 243.642 541.299C243.191 541.694 242.725 542.073 242.266 542.424C240.844 543.513 239.492 544.333 238.895 544.538C238.103 544.538 237.048 545.886 236.257 548.045C235.465 549.933 234.146 552.092 233.092 552.631C232.3 553.441 231.509 555.869 231.509 558.567C231.509 562.344 230.981 563.693 226.762 568.28ZM284.428 559.364C284.428 560.138 283.362 561.427 282.03 562.716C278.568 565.551 277.77 565.809 275.372 564.777C272.709 563.489 271.377 560.653 272.975 560.138C273.33 560.023 274.002 559.602 274.873 558.988C275.707 558.4 276.725 557.637 277.82 556.795L278.834 556.014C283.629 551.889 284.162 551.632 286.825 552.663C288.157 553.178 288.157 553.693 287.091 555.498C286.711 556.417 286.195 557.335 285.738 557.787C285.642 557.882 285.549 557.956 285.46 558.005C285.378 558.051 285.3 558.075 285.227 558.075C285.007 558.075 284.832 558.164 284.703 558.322C284.603 558.445 284.529 558.611 284.483 558.811C284.464 558.897 284.449 558.99 284.439 559.089C284.432 559.177 284.428 559.269 284.428 559.364ZM259.104 585.524C259.104 583.05 257.542 581.677 255.197 582.226C254.503 582.373 253.956 582.754 253.598 583.245C253.283 583.674 253.113 584.187 253.113 584.7C253.113 586.349 253.634 586.898 255.979 586.898C257.802 586.898 259.104 586.349 259.104 585.524ZM255.891 590.285C256.98 591.675 256.98 592.23 255.891 593.619C255.346 594.453 254.257 595.286 253.984 595.286C251.807 595.008 250.717 593.619 250.717 591.952C250.717 589.452 253.713 588.341 255.891 590.285ZM249.267 593.155C250.11 591.869 248.705 589.295 247.02 589.295C245.052 589.295 244.209 590.582 245.052 592.641C245.896 594.184 248.144 594.7 249.267 593.155ZM250.521 594.115C251.009 594.225 251.556 594.658 251.86 595.389C252.074 596.046 251.647 596.484 250.796 596.484C250.157 596.484 249.519 595.826 249.519 594.951C249.519 594.263 249.984 593.995 250.521 594.115Z" fill="white"/>
        <path onclick="test(7)" fill-rule="evenodd" clip-rule="evenodd" d="M149.261 556.686C150.062 556.156 151.128 553.237 151.928 550.585C152.995 545.809 153.262 542.891 152.995 526.443C152.995 521.402 153.262 515.035 154.062 512.117C155.129 507.341 155.662 506.546 159.663 504.689L163.93 502.566L168.755 498.79H162.769L158.261 496.697L152.995 499.132L147.66 504.689L139.357 506.153L134.735 504.689L136.459 512.117L139.357 519.247V526.443V537.658L144.194 548.186C144.194 548.186 140.988 555.401 141.792 554.829C142.327 554.563 143.393 556.156 144.194 558.013C145.793 561.992 147.66 563.053 147.66 559.87C147.66 558.809 148.461 557.482 149.261 556.686Z" fill="white" stroke="#0070BA"/>
        <path onclick="test(8)" fill-rule="evenodd" clip-rule="evenodd" d="M139.374 519.221L136.458 512.105L134.735 504.689L130.882 506.8L127.625 510.208C127.625 510.208 127.439 510.925 127.412 511.303C126.878 514.751 126.589 516.892 126.056 517.688C125.255 519.545 126.856 524.851 129.256 527.504C131.657 530.422 134.058 537.055 136.458 545.809C138.325 553.503 139.676 556.156 141.543 554.829C141.62 554.791 144.2 548.136 144.2 548.136L139.374 537.731V519.221Z" fill="white" stroke="#0070BA"/>
        <path onclick="test(9)" fill-rule="evenodd" clip-rule="evenodd" d="M163.93 502.566L170.331 506.015C170.331 506.015 179.666 509.729 188.201 506.81C194.069 504.953 195.136 505.484 195.136 510.79C195.136 513.974 198.07 521.667 199.403 521.667C199.67 521.667 200.737 523.258 201.537 525.116C202.337 526.973 203.671 529.891 204.738 532.014C206.605 534.932 207.138 535.197 208.205 533.605C208.739 532.809 209.272 529.361 209.005 524.851C208.739 520.871 209.005 516.627 209.539 515.831C210.338 514.504 209.805 512.117 208.205 507.872C206.872 504.423 205.005 499.648 203.937 496.995C201.537 490.362 196.737 486.649 192.468 487.709C188.201 489.036 177.578 483.536 177.578 483.536L163.93 485.322H159.663L161.484 489.533L166.824 491.212L168.745 495.074V498.793L163.93 502.566Z" fill="white" stroke="#0070BA"/>
        <path onclick="test(10)" fill-rule="evenodd" clip-rule="evenodd" d="M130.858 506.811L134.735 504.689L139.441 506.147L147.66 504.689L152.995 499.155V493.072L147.66 485.322L140.044 476.696L135.017 468.467L121.713 476.197C121.713 476.197 124.83 480.027 129.524 485.322C133.679 490.009 133.792 490.628 131.925 495.669C131.124 497.526 130.591 499.383 130.858 499.648C131.124 499.913 130.858 500.709 130.058 501.77C128.99 502.566 127.924 506.015 127.657 509.729C127.627 509.923 127.598 510.241 127.598 510.241L130.858 506.811Z" fill="white" stroke="#0070BA"/>
        <path onclick="test(11)" fill-rule="evenodd" clip-rule="evenodd" d="M176.732 482.669C173.798 480.016 167.397 468.344 167.397 465.691C167.131 463.037 154.594 451.896 144.459 445.529C139.925 442.875 134.906 436.985 133.573 426.638C133.55 426.505 133.431 426.226 133.431 426.226L129.092 420.631L128.614 427.946L126.069 429.429L136.458 443.908L133.816 453.142L134.987 455.825L136.906 463.065L134.987 468.421L139.976 476.655L147.66 485.322H163.93L177.632 483.57C177.632 483.57 177.106 483.041 176.732 482.669Z" fill="white" stroke="#0070BA"/>
        <path onclick="test(12)" fill-rule="evenodd" clip-rule="evenodd" d="M121.742 476.362L134.924 468.464L136.919 463.042L134.924 455.596L133.788 453.096L136.458 443.936L126.056 429.441L128.615 427.971L129.257 419.393L121.389 412.544L115.388 401.529V397.776L113.83 380.29L99.8176 384.53L100.142 395.831L97.6962 396.454L96.5996 396.14C96.5996 396.14 96.8759 397.077 97.2506 397.776C99.1175 401.224 102.318 405.734 103.919 407.326C107.653 411.04 109.52 414.224 114.054 424.835C114.854 426.692 115.388 433.59 115.388 443.936C115.388 465.425 121.742 476.362 121.742 476.362Z" fill="white" stroke="#0070BA"/>
        <path onclick="test(13)" fill-rule="evenodd" clip-rule="evenodd" d="M131.672 416.611C131.406 415.02 130.872 411.041 130.072 408.122C129.539 405.204 129.004 399.898 128.738 396.45C128.471 392.736 127.938 388.756 127.405 387.429C126.871 385.837 126.604 383.98 127.137 383.185C127.672 382.389 128.205 379.205 128.738 376.287C129.004 373.103 130.072 369.124 130.872 367.267C132.739 363.022 132.692 354.384 132.692 354.384L126.579 359.264H115.877L116.732 372.338L113.827 380.131L115.406 401.569L121.388 412.585L129.244 420.721L132.205 424.835L133.457 426.25C133.457 426.25 132.626 420.628 131.672 416.611Z" fill="white" stroke="#0070BA"/>
        <path onclick="test(14)" fill-rule="evenodd" clip-rule="evenodd" d="M97.7508 396.449L100.106 395.934L99.7803 384.51L113.785 380.297L116.713 372.296L115.888 358.266L114.554 349.191L110.897 329.837L106.45 322.605L97.7508 318.458L86.015 323.551C86.015 323.551 87.6158 331.453 87.8819 341.799C88.4162 352.675 88.6823 356.39 90.2831 366.736C91.6168 374.165 91.0825 376.286 86.5492 381.062L83.3486 384.51L86.015 386.633C87.6158 387.96 90.016 389.552 91.6168 390.082C92.4019 390.55 93.8098 392.983 96.397 395.934C96.7397 396.325 97.7508 396.449 97.7508 396.449Z" fill="white" stroke="#0070BA"/>
        <path onclick="test(15)" fill-rule="evenodd" clip-rule="evenodd" d="M132.69 354.268C132.69 354.268 132.69 354.268 131.624 348.166C130.557 339.677 130.557 339.411 132.69 337.289C133.758 335.963 135.358 335.167 135.891 335.167C136.425 335.167 138.558 333.84 140.425 332.514C142.292 331.187 144.426 329.86 144.96 329.86C145.493 329.86 146.293 329.596 146.293 329.065C146.56 328.8 150.027 327.473 154.028 326.147C165.231 322.963 172.966 324.024 180.166 330.657C181.5 331.717 186.301 334.901 190.836 337.289C195.903 340.207 202.037 344.717 205.771 348.431C209.239 352.145 212.439 354.533 212.706 354.268C213.24 354.002 212.439 351.615 211.372 348.962C210.039 346.308 208.972 343.921 208.972 343.125C208.972 340.207 205.505 336.228 201.504 335.167C193.236 332.779 187.635 328.269 184.167 321.372C179.633 312.086 174.032 303.066 171.098 299.618C169.498 298.025 167.631 295.108 166.831 293.515C166.03 291.924 164.964 290.332 164.697 290.067C162.296 287.68 151.558 271.075 151.558 271.075L148.531 282.487L133.64 301.768L121.733 307.611L127.983 318.315L121.733 323.721L110.929 329.86L114.554 348.962L115.888 359.278H126.556L132.69 354.268Z" fill="white" stroke="#0070BA"/>
        <path onclick="test(16)" fill-rule="evenodd" clip-rule="evenodd" d="M133.491 301.811L148.598 282.313L151.529 271.159C151.529 271.159 147.627 266.19 145.226 263.537C137.492 254.518 135.891 252.395 135.357 249.477C134.824 247.619 134.024 245.762 133.491 244.701C132.69 243.905 131.09 240.457 129.757 237.008L110.795 240.229L119.862 256.087L121.724 267.816L120.356 275.736L110.795 286.258L98.8468 288.205L90.1332 290.272L78.7883 296.743C78.1505 303.035 83.0823 308.061 83.3485 318.407C83.4883 321.255 85.8246 323.595 85.8246 323.595L97.7507 318.407L106.496 322.705L111.033 329.86L121.724 323.73L127.89 318.407L121.724 307.554L133.491 301.811Z" fill="white" stroke="#0070BA"/>
        <path onclick="test(17)" fill-rule="evenodd" clip-rule="evenodd" d="M129.757 237.008C128.424 233.824 126.023 229.05 124.423 226.661C120.423 220.825 118.289 215.784 118.289 212.07C118.289 208.622 114.555 203.582 112.154 204.112C111.087 204.112 109.22 203.316 107.886 202.255L105.219 200.398L107.086 197.479C109.487 194.561 109.487 195.092 104.42 186.337C102.553 183.154 99.6182 180.235 98.0184 180.235C97.4841 180.235 96.6847 181.562 96.4176 182.888C95.8843 187.929 93.4841 187.133 93.7503 182.092C94.0174 175.991 91.3501 170.42 86.5497 167.236C83.8823 165.379 82.2815 162.991 81.215 160.339C79.0809 153.972 78.2805 148.4 79.3481 148.135C79.8813 148.135 78.5477 143.359 76.4136 137.789C73.213 128.238 72.9469 127.442 74.2805 124.524C75.6142 122.137 75.8803 121.871 76.4136 123.198C76.5479 123.731 76.1531 125.587 75.7683 128.01C75.3834 130.434 76.1531 132.918 76.8555 132.918C78.268 132.918 80.9518 119.474 80.9518 119.474L75.2223 121.498L65.7814 122.918H55.0757L46.2982 117.365L45.9004 125.439L46.2982 135.993L52.3634 160.339C52.3634 160.339 59.6203 186.236 61.7443 190.267C63.8682 194.299 70.4104 208.055 70.4104 208.055L81.6242 206.494L93.3617 217.383L105.544 237.593L110.849 240.266L129.757 237.008Z" fill="white" stroke="#0070BA"/>
        <path onclick="test(18)" fill-rule="evenodd" clip-rule="evenodd" d="M84.5888 293.75L90.1715 290.294L74.0132 259.621L76.1919 236.069L70.4043 207.771L67.4571 201.808L59.0501 182.715C59.0501 182.715 53.1026 160.313 52.4094 160.313C52.0809 160.313 42.2344 159.376 42.2344 159.376L34.5226 160.313H24.4491L17.2764 158.271C17.2764 158.271 21.2038 159.543 22.2704 168.827C24.1373 181.561 24.4044 183.154 26.0042 183.154C28.9387 183.154 32.9387 188.194 33.472 192.173C33.7391 195.092 34.8056 197.214 39.0738 201.459C42.0072 204.377 44.9417 206.499 45.2078 206.233C46.5415 205.438 50.2754 206.765 50.2754 208.356C50.2754 208.887 51.3429 210.213 52.4094 211.274C53.476 212.336 54.5435 212.866 54.5435 212.601C54.5435 212.07 55.3429 212.336 56.4104 212.866C57.477 213.662 58.2774 214.723 57.7441 215.784C57.477 217.907 63.611 227.988 67.0788 230.375C69.7461 232.233 69.479 234.62 66.2784 234.09C63.611 233.294 63.3449 233.56 61.7441 246.558C60.4104 254.782 60.9447 256.375 67.0788 269.373C69.2129 273.619 70.8126 277.597 70.8126 278.393C70.8126 279.19 72.1463 282.373 74.0132 285.291C75.614 288.474 78.1644 293.303 78.6977 296.751L84.5888 293.75Z" fill="white" stroke="#0070BA"/>
        <path onclick="test(19)" fill-rule="evenodd" clip-rule="evenodd" d="M80.9475 119.484C79.881 113.647 77.4808 107.545 74.5463 102.77C72.6793 99.8521 70.8124 96.4028 70.5463 94.8106C69.7459 91.6271 67.879 91.8928 67.879 95.342C67.879 98.5255 66.2781 97.199 60.1441 88.7092C53.4757 79.1587 52.1421 76.2409 55.3427 75.1791C57.7439 74.6486 58.8104 75.9752 59.8769 80.751C60.6773 83.6688 68.1451 89.7701 68.6783 87.9131C68.9455 87.118 67.6118 84.4649 65.7449 81.5461C64.1451 78.893 62.5443 75.7095 62.5443 74.6486C62.5443 72.2613 57.4767 67.4855 55.0765 67.4855C54.009 67.4855 52.6753 66.1589 52.1421 64.302C51.3427 62.7107 49.7419 60.8537 48.6753 60.3233C47.3417 59.7919 46.2741 58.4663 46.2741 57.4045C46.2741 55.5475 40.6733 47.3235 38.006 45.2009C36.4062 43.8743 35.6058 32.7325 36.9395 30.8755C39.3397 27.9567 30.2711 13.101 26.004 13.101C25.2036 13.101 23.8699 11.7744 23.3367 10.4479C21.7369 7.26438 19.0695 7.53009 18.5363 10.7136C18.2691 12.0392 19.0695 13.8971 20.6693 15.4884C22.2701 17.0806 22.8034 18.1415 22.003 18.1415C21.2036 18.1415 20.1361 18.9376 19.3367 19.7327C18.5363 20.5289 17.4687 20.7946 16.9355 20.5289C16.4022 19.9984 12.6683 19.7327 8.93447 19.7327L2 19.468L7.86693 25.0389C14.5353 31.406 22.2701 36.7122 23.6038 35.916C25.2036 35.1199 26.5373 40.6908 26.2711 46.7931C26.004 54.4867 27.8709 56.8741 30.005 51.8336C32.6723 45.2009 35.6058 45.997 34.2721 52.8944C33.4717 57.4045 31.6048 58.7311 28.6713 57.1398C27.0705 56.3437 26.5373 56.3437 26.5373 57.6702C26.5373 59.7919 27.0705 60.8537 27.6048 60.588C27.8709 60.3233 28.6713 61.3842 29.2046 62.9754C30.005 64.302 30.005 65.3638 29.4717 65.3638C29.2046 65.3638 28.9385 66.9551 29.2046 69.0777C29.4717 72.7917 29.2046 73.3221 24.4042 76.2409C21.7369 78.0979 19.3367 79.4244 19.0695 78.893C18.8024 78.3626 18.2691 75.9752 18.003 73.3221C17.4687 70.669 16.6693 68.2816 16.4022 68.2816C14.8024 68.2816 8.93447 71.7308 8.93447 72.526C8.93447 72.7917 7.33366 75.1791 5.46673 77.3017C1.1996 82.3422 1.1996 84.9953 5.99999 93.485C11.0675 102.77 14.2681 112.055 14.2681 117.361C14.2681 121.605 15.8689 129.565 18.8024 139.911C19.6028 142.299 17.7359 145.747 16.1361 144.686C15.6018 144.421 15.3357 145.216 15.3357 146.543C15.3357 147.87 14.8024 149.462 14.2681 149.992C12.9355 151.319 16.0627 158.952 17.6625 158.422L24.4042 160.339H34.2721L42.2815 159.439L52.4092 160.339L46.2741 136L45.8983 125.439L46.2741 117.361L55.0765 122.933H65.7449L75.2138 121.5L80.9475 119.484Z" fill="white" stroke="#0070BA"/>
        <path onclick="test(20)" d="M70.498 208.089L76.2041 235.862L74.0343 259.53L90.0949 290.31L98.594 288.324L110.885 286.285L120.376 275.639L121.929 267.769L119.878 256.094L110.885 240.253L105.533 237.58L93.4008 217.39L81.7303 206.469L70.498 208.089Z" fill="white" stroke="#0070BA"/>
        <path onclick="test(21)" d="M147.65 485.336L153.027 493.168V499.177L158.289 496.725L162.751 498.798H168.696V495.021L166.818 491.166L161.477 489.5L159.656 485.336H147.65Z" fill="white" stroke="#0070BA"/>
      </svg>
