<svg width="22" height="22" viewBox="0 0 22 22" fill="none" xmlns="http://www.w3.org/2000/svg">
<path fill-rule="evenodd" clip-rule="evenodd" d="M16.4585 15.5317L21.8049 20.8781C22.0586 21.1317 22.0586 21.5512 21.8049 21.8049C21.6781 21.9366 21.5073 22 21.3414 22C21.1757 22 21.0049 21.9317 20.8781 21.8049L15.5317 16.4585C13.8829 17.8927 11.7317 18.761 9.38049 18.761C4.20972 18.761 0 14.5512 0 9.38049C0 4.20976 4.20483 0 9.38049 0C14.5513 0 18.761 4.20488 18.761 9.38049C18.761 11.7317 17.8927 13.8829 16.4585 15.5317ZM9.37561 1.31708C4.93176 1.31708 1.31226 4.93172 1.31226 9.38049C1.31226 13.8293 4.93176 17.4488 9.37561 17.4488C13.8245 17.4488 17.4391 13.8244 17.4391 9.38049C17.4391 4.93658 13.8245 1.31708 9.37561 1.31708Z" fill="black"/>
</svg>
