<svg width="25" height="24" viewBox="0 0 25 24" fill="none" xmlns="http://www.w3.org/2000/svg">
<path fill-rule="evenodd" clip-rule="evenodd" d="M23.1543 10.0767C23.4941 10.0767 23.8867 10.3302 23.9258 10.6675C24.0273 11.5764 24.0254 12.4942 23.9199 13.3965C23.877 13.7477 23.5605 14.0128 23.2168 13.9849L23.0684 13.981C22.0078 13.981 21.0215 14.6345 20.6133 15.6077C20.1797 16.6416 20.4512 17.845 21.2871 18.6013C21.5488 18.8383 21.5801 19.2384 21.3574 19.5134C20.7871 20.2241 20.1348 20.8698 19.416 21.4327C19.1406 21.6462 18.748 21.6151 18.5117 21.357C17.7969 20.5727 16.5273 20.2775 15.5391 20.6808C14.5176 21.0991 13.8574 22.1277 13.8965 23.2398C13.9082 23.589 13.6504 23.8887 13.3027 23.9271C12.8633 23.9759 12.4238 24 11.9863 24C11.5234 24 11.0625 23.9733 10.6035 23.9198C10.252 23.8795 9.99414 23.572 10.0137 23.2188C10.0781 22.0944 9.42578 21.0475 8.39062 20.6143C7.40234 20.1992 6.11719 20.4931 5.39844 21.2872C5.16016 21.5499 4.75977 21.5811 4.48633 21.3596C4.05469 21.013 3.64648 20.6354 3.26758 20.2311C3.0293 19.9772 2.80273 19.7129 2.58789 19.439C2.37109 19.1647 2.4043 18.7706 2.66016 18.5347C3.48047 17.7823 3.75 16.5902 3.33203 15.5674C2.91016 14.5432 1.90625 13.8962 0.861328 13.923C0.517578 13.923 0.113281 13.6717 0.0742188 13.3329C-0.0273438 12.424 -0.0253906 11.5054 0.0800781 10.6039C0.101562 10.4208 0.1875 10.2631 0.320312 10.157C0.439453 10.0626 0.59375 10.009 0.773438 10.0148C1.94531 10.0148 2.9707 9.37909 3.38477 8.3927C3.81836 7.35809 3.54883 6.15491 2.71289 5.39856C2.45312 5.16144 2.41992 4.76202 2.64258 4.48645C3.21094 3.77765 3.86328 3.13147 4.58398 2.5672C4.85742 2.35297 5.25391 2.38477 5.48828 2.64337C6.20312 3.42847 7.47852 3.7204 8.45898 3.3197C9.48242 2.9007 10.1426 1.87213 10.1035 0.759338C10.0918 0.410828 10.3496 0.111145 10.6973 0.0727539C11.5957 -0.0269775 12.5 -0.0237427 13.3965 0.079895C13.4844 0.0901489 13.5664 0.117065 13.6406 0.157166C13.8594 0.277344 14 0.516113 13.9863 0.780823C13.9219 1.9046 14.5742 2.95154 15.6074 3.38617C16.5996 3.80042 17.8848 3.50598 18.5996 2.71381C18.8359 2.45117 19.2383 2.42065 19.5117 2.64014C20.2109 3.19971 20.8496 3.84534 21.4121 4.56006C21.5273 4.70496 21.5723 4.88354 21.5508 5.05457C21.5332 5.20715 21.4609 5.3537 21.3398 5.4649C20.5195 6.21667 20.25 7.40955 20.668 8.43231C21.0781 9.43097 22.0547 10.0767 23.1543 10.0767ZM8.01562 12.0254C8.01562 14.2326 9.81055 16.028 12.0176 16.028C14.2266 16.028 16.0215 14.2326 16.0215 12.0254C16.0215 9.81824 14.2266 8.02271 12.0176 8.02271C9.81055 8.02271 8.01562 9.81824 8.01562 12.0254Z" fill="#0070BA"/>
</svg>
