<svg width="26" height="20" viewBox="0 0 26 20" fill="none" xmlns="http://www.w3.org/2000/svg">
<path fill-rule="evenodd" clip-rule="evenodd" d="M24.7305 0H20.9277C20.2266 0 19.6602 0.639893 19.6602 1.42822V18.5698C19.6602 19.3601 20.2285 19.9987 20.9277 19.9987H24.7305C25.4316 19.9987 26 19.3601 26 18.5698V1.42889C26 0.639893 25.4316 0 24.7305 0ZM14.9004 5.71429H11.0977C10.3965 5.71429 9.83008 6.35419 9.83008 7.14319V18.5711C9.83008 19.3615 10.3984 20 11.0977 20H14.9004C15.6016 20 16.1699 19.3615 16.1699 18.5711V7.1412C16.1699 6.35419 15.6016 5.71429 14.9004 5.71429ZM1.26758 10.7131H5.07031C5.77148 10.7131 6.33984 11.353 6.33789 12.142V18.5697C6.33789 19.3601 5.77148 19.9987 5.07031 19.9987H1.26758C0.568359 19.9987 0 19.3601 0 18.5697V12.142C0 11.353 0.566406 10.7131 1.26758 10.7131Z" fill="#0070BA"/>
</svg>
